<?xml version="1.0" encoding="UTF-8"?>
<svg width="14px" height="14px" viewBox="0 0 14 14" version="1.1" xmlns="http://www.w3.org/2000/svg" xmlns:xlink="http://www.w3.org/1999/xlink">
    <!-- Generator: Sketch Beta 54 (76446) - https://sketchapp.com -->
    <title>facebook_icon</title>
    <desc>Created with Sketch Beta.</desc>
    <g id="facebook_icon" stroke="none" stroke-width="1" fill="none" fill-rule="evenodd">
        <path d="M14,0.78125 L14,13.21875 C14,13.4270835 13.9270835,13.609375 13.78125,13.765625 C13.6354165,13.921875 13.4479165,14 13.21875,14 L9.65625,14 L9.65625,8.5625 L11.46875,8.5625 L11.75,6.46875 L9.65625,6.46875 L9.65625,5.125 C9.65625,4.77083349 9.71875,4.52083349 9.84375,4.375 C10.0104165,4.1875 10.2916665,4.09375 10.6875,4.09375 L11.8125,4.09375 L11.8125,2.1875 C11.375,2.14583349 10.8333335,2.125 10.1875,2.125 C9.375,2.125 8.71875,2.36458349 8.21875,2.84375 C7.71875,3.32291651 7.46875,4.01041651 7.46875,4.90625 L7.46875,6.46875 L5.65625,6.46875 L5.65625,8.5625 L7.46875,8.5625 L7.46875,14 L0.78125,14 C0.552083492,14 0.364583492,13.921875 0.21875,13.765625 C0.0729165077,13.609375 0,13.4270835 0,13.21875 L0,0.78125 C0,0.552083492 0.0729165077,0.364583492 0.21875,0.21875 C0.364583492,0.0729165077 0.552083492,0 0.78125,0 L13.21875,0 C13.4270835,0 13.609375,0.0729165077 13.765625,0.21875 C13.921875,0.364583492 14,0.552083492 14,0.78125 Z" id="" fill="#000000" fill-rule="nonzero"></path>
    </g>
</svg>