<?xml version="1.0" encoding="UTF-8"?>
<svg width="14px" height="14px" viewBox="0 0 14 14" version="1.1" xmlns="http://www.w3.org/2000/svg" xmlns:xlink="http://www.w3.org/1999/xlink">
    <!-- Generator: Sketch Beta 54 (76446) - https://sketchapp.com -->
    <title>linkedin_icon</title>
    <desc>Created with Sketch Beta.</desc>
    <g id="linkedin_icon" stroke="none" stroke-width="1" fill="none" fill-rule="evenodd">
        <path d="M12.999969,0 C13.2708019,0 13.5051763,0.0989582563 13.7030923,0.296874292 C13.9010084,0.494790328 13.9999666,0.729164769 13.9999666,0.999997616 L13.9999666,12.999969 C13.9999666,13.2708019 13.9010084,13.5051763 13.7030923,13.7030923 C13.5051763,13.9010084 13.2708019,13.9999666 12.999969,13.9999666 L0.999997616,13.9999666 C0.729164769,13.9999666 0.494790328,13.9010084 0.296874292,13.7030923 C0.0989582563,13.5051763 0,13.2708019 0,12.999969 L0,1 C0,0.729164769 0.0989582563,0.494790328 0.296874292,0.296874292 C0.494790328,0.0989582563 0.729164769,0 1,0 L12.999969,0 Z M2.15624486,11.9999714 L4.24998987,11.9999714 L4.24998987,5.31248733 L2.15624486,5.31248733 L2.15624486,11.9999714 Z M3.1874924,4.40623949 C3.5208251,4.40623949 3.80728243,4.28644827 4.04686535,4.04686535 C4.28644827,3.80728243 4.40623949,3.5260331 4.40623949,3.20311736 C4.40623949,2.88020163 4.28644827,2.5989523 4.04686535,2.35936937 C3.80728243,2.11978645 3.5208251,1.99999523 3.1874924,1.99999523 C2.8541597,1.99999523 2.57291037,2.11978645 2.34374441,2.35936937 C2.11457845,2.5989523 1.99999523,2.88020163 1.99999523,3.20311736 C1.99999523,3.5260331 2.11457845,3.80728243 2.34374441,4.04686535 C2.57291037,4.28644827 2.8541597,4.40623949 3.1874924,4.40623949 Z M11.9999714,11.9999714 L11.9999714,8.34373011 C11.9999714,7.30206608 11.8541382,6.54165091 11.5624724,6.06248555 C11.1666399,5.45832048 10.4895585,5.15623771 9.53123681,5.15623771 C9.05206191,5.15623771 8.62497944,5.27082093 8.24998033,5.49998689 C7.93748108,5.68748644 7.70831511,5.92706936 7.56248197,6.21873517 L7.53123204,6.21873517 L7.53123204,5.31248733 L5.53123681,5.31248733 L5.53123681,11.9999714 L7.5937319,11.9999714 L7.5937319,8.68747929 C7.5937319,8.16664704 7.66664823,7.77081497 7.81248137,7.49998212 C8.02081437,7.14581646 8.36456355,6.96873339 8.84372891,6.96873339 C9.32289428,6.96873339 9.63539354,7.16664942 9.78122668,7.56248197 C9.88539294,7.81248137 9.93747631,8.20831392 9.93747631,8.74997914 L9.93747631,11.9999714 L11.9999714,11.9999714 Z" id="" fill="#000000" fill-rule="nonzero"></path>
    </g>
</svg>