<?xml version="1.0" encoding="UTF-8"?>
<svg width="14px" height="14px" viewBox="0 0 14 14" version="1.1" xmlns="http://www.w3.org/2000/svg" xmlns:xlink="http://www.w3.org/1999/xlink">
    <!-- Generator: Sketch Beta 54 (76446) - https://sketchapp.com -->
    <title>twitter_icon</title>
    <desc>Created with Sketch Beta.</desc>
    <g id="twitter_icon" stroke="none" stroke-width="1" fill="none" fill-rule="evenodd">
        <path d="M12.4999702,0 C12.9166357,0 13.2708019,0.145833145 13.5624677,0.437498957 C13.8541335,0.729164769 13.9999666,1.08333091 13.9999666,1.49999642 L13.9999666,12.4999702 C13.9999666,12.9166357 13.8541335,13.2708019 13.5624677,13.5624677 C13.2708019,13.8541335 12.9166357,13.9999666 12.4999702,13.9999666 L1.49999642,13.9999666 C1.08333091,13.9999666 0.729164769,13.8541335 0.437498957,13.5624677 C0.145833145,13.2708019 0,12.9166357 0,12.4999702 L0,1.5 C0,1.08333091 0.145833145,0.729164769 0.437498957,0.437498957 C0.729164769,0.145833145 1.08333091,0 1.5,0 L12.4999702,0 Z M10.9687238,4.96873815 C11.3645564,4.67707234 11.7083056,4.3229062 11.9999714,3.90624069 C11.6041388,4.0729068 11.2083068,4.17707353 10.8124742,4.21873994 C11.2499732,3.9479071 11.5520559,3.57290799 11.7187221,3.09374262 C11.3020565,3.34374203 10.8645576,3.51040814 10.4062252,3.59374143 C10.0103926,3.15624247 9.52081079,2.937493 8.93747869,2.937493 C8.52081318,2.937493 8.14060559,3.05207622 7.79685641,3.28124218 C7.45310723,3.51040814 7.19789935,3.81769939 7.03123324,4.20311498 C6.86456713,4.58853057 6.8333172,5.01040456 6.93748346,5.46873696 C6.08331899,5.42707055 5.29165389,5.21352908 4.56248912,4.82811349 C3.83332435,4.4426979 3.20832584,3.93749061 2.68749359,3.3124921 C2.49999404,3.62499136 2.40624426,3.96353206 2.40624426,4.32811468 C2.40624426,4.6926973 2.48957756,5.02602952 2.65624367,5.3281123 C2.82290978,5.63019507 3.05207622,5.87498599 3.34374203,6.06248555 C3.01040933,6.0416521 2.69791008,5.94790233 2.40624426,5.78123622 L2.40624426,5.81248614 C2.40624426,6.31248495 2.56249389,6.74998391 2.87499315,7.12498301 C3.1874924,7.49998212 3.58332495,7.73956504 4.06249031,7.8437313 C3.7708245,7.90623115 3.45832525,7.91664763 3.12499255,7.87498122 C3.24999225,8.29164674 3.48957517,8.63018792 3.84374084,8.8906038 C4.1979065,9.15101969 4.59373905,9.28122787 5.031238,9.28122787 C4.28123979,9.86455997 3.4374918,10.1562258 2.49999404,10.1562258 L1.99999523,10.1562258 C2.95832644,10.7603909 4.01040695,11.0624736 5.15623771,11.0624736 C6.34373488,11.0624736 7.40623234,10.7603909 8.34373011,10.1562258 C9.17706161,9.61456057 9.83331005,8.87497884 10.3124754,7.93748108 C10.7499744,7.06248316 10.9687238,6.15623532 10.9687238,5.21873756 L10.9687238,4.96873815 Z" id="ï‚" fill="#000000" fill-rule="nonzero"></path>
    </g>
</svg>